<svg width="559" height="559" viewBox="0 0 559 559" fill="none" xmlns="http://www.w3.org/2000/svg">
<rect width="559" height="559" fill="url(#paint0_linear_654_35)"/>
<g opacity="0.3">
<g opacity="0.6">
<path d="M326.003 235.189C326.003 205.169 337.928 176.379 359.155 155.152C380.382 133.925 409.172 122 439.191 122C439.191 151.786 439.192 127.957 439.192 155.152C439.192 179.834 439.192 141.625 439.192 171.644L439.192 191.502L326.003 235.189Z" fill="#9D0000"/>
<path d="M530.536 259.017C530.535 228.997 518.61 200.207 497.383 178.98C476.156 157.753 447.366 145.828 417.347 145.828C417.347 175.615 417.347 151.785 417.347 178.98C417.347 203.663 417.347 165.453 417.347 195.472L417.347 215.33L530.536 259.017Z" fill="#E00000"/>
</g>
<g opacity="0.6">
<path d="M326 417.643C326 387.623 337.925 358.833 359.152 337.606C380.379 316.379 409.169 304.454 439.189 304.454C439.189 334.241 439.189 310.411 439.189 337.606C439.189 362.288 439.189 324.079 439.189 354.098L439.189 373.956L326 417.643Z" fill="#9D0000"/>
<path d="M530.537 441.472C530.537 411.453 518.612 382.663 497.385 361.436C476.158 340.209 447.368 328.283 417.349 328.283C417.349 358.07 417.348 334.241 417.348 361.436C417.348 386.118 417.348 347.908 417.348 377.928L417.349 397.785L530.537 441.472Z" fill="#E00000"/>
</g>
<g opacity="0.2">
<path d="M326.003 326.415C326.003 296.396 337.928 267.605 359.155 246.378C380.382 225.151 409.172 213.226 439.191 213.226C439.191 243.013 439.192 219.184 439.192 246.378C439.192 271.061 439.192 232.851 439.192 262.87L439.192 282.728L326.003 326.415Z" fill="#9D0000"/>
<path d="M530.537 350.243C530.537 320.224 518.612 291.434 497.385 270.207C476.158 248.98 447.368 237.054 417.349 237.054C417.349 266.841 417.348 243.012 417.348 270.207C417.348 294.889 417.348 256.679 417.348 286.699L417.349 306.556L530.537 350.243Z" fill="#E00000"/>
</g>
<g opacity="0.2">
<path d="M326.003 508.868C326.003 478.849 337.928 450.059 359.155 428.832C380.382 407.605 409.172 395.679 439.191 395.679C439.191 425.466 439.192 401.637 439.192 428.832C439.192 453.514 439.192 415.304 439.192 445.324L439.192 465.181L326.003 508.868Z" fill="#9D0000"/>
<path d="M530.537 532.697C530.537 502.678 518.612 473.888 497.385 452.661C476.158 431.434 447.368 419.509 417.349 419.509C417.349 449.295 417.348 425.466 417.348 452.661C417.348 477.343 417.348 439.133 417.348 469.153L417.349 489.011L530.537 532.697Z" fill="#E00000"/>
</g>
</g>
<g opacity="0.3">
<g opacity="0.6">
<path d="M233.534 301.509C233.534 331.528 221.609 360.318 200.382 381.545C179.155 402.772 150.365 414.698 120.346 414.698C120.346 384.911 120.345 408.74 120.345 381.545C120.345 356.863 120.345 395.073 120.345 365.053L120.346 345.196L233.534 301.509Z" fill="#FEA31B"/>
<path d="M29.0016 277.681C29.0016 307.7 40.9268 336.49 62.1537 357.717C83.3806 378.944 112.171 390.869 142.19 390.869C142.19 361.083 142.19 384.912 142.19 357.717C142.19 333.035 142.19 371.245 142.19 341.225L142.19 321.368L29.0016 277.681Z" fill="#FFEBC5"/>
</g>
<g opacity="0.6">
<path d="M233.537 119.055C233.537 149.074 221.612 177.864 200.385 199.092C179.158 220.319 150.368 232.244 120.349 232.244C120.349 202.457 120.348 226.286 120.348 199.092C120.348 174.409 120.348 212.619 120.348 182.6L120.349 162.742L233.537 119.055Z" fill="#FEA31B"/>
<path d="M29.0001 95.2256C29.0001 125.245 40.9254 154.035 62.1523 175.262C83.3792 196.489 112.169 208.414 142.189 208.414C142.189 178.628 142.189 202.457 142.189 175.262C142.189 150.58 142.189 188.79 142.189 158.77L142.189 138.912L29.0001 95.2256Z" fill="#FFEBC5"/>
</g>
<g opacity="0.2">
<path d="M233.534 210.282C233.534 240.302 221.609 269.092 200.382 290.319C179.155 311.546 150.365 323.471 120.346 323.471C120.346 293.685 120.345 317.514 120.345 290.319C120.345 265.637 120.345 303.847 120.345 273.827L120.346 253.969L233.534 210.282Z" fill="#FEA31B"/>
<path d="M29.0001 186.455C29.0001 216.474 40.9254 245.264 62.1523 266.491C83.3792 287.718 112.169 299.643 142.189 299.643C142.189 269.857 142.189 293.686 142.189 266.491C142.189 241.809 142.189 280.019 142.189 249.999L142.189 230.141L29.0001 186.455Z" fill="#FFEBC5"/>
</g>
<g opacity="0.2">
<path d="M233.534 27.8293C233.534 57.8489 221.609 86.6389 200.382 107.866C179.155 129.093 150.365 141.018 120.346 141.018C120.346 111.232 120.345 135.061 120.345 107.866C120.345 83.1837 120.345 121.393 120.345 91.3739L120.346 71.5163L233.534 27.8293Z" fill="#FEA31B"/>
<path d="M29.0001 4.00001C29.0001 34.0195 40.9254 62.8096 62.1523 84.0366C83.3792 105.264 112.169 117.189 142.189 117.189C142.189 87.4023 142.189 111.231 142.189 84.0366C142.189 59.3543 142.189 97.5641 142.189 67.5446L142.189 47.6869L29.0001 4.00001Z" fill="#FFEBC5"/>
</g>
</g>
<g filter="url(#filter0_d_654_35)">
<path d="M83.0002 366.565C83.0002 308.068 105.914 251.966 146.7 210.602C187.486 169.238 242.804 146 300.485 146C300.485 204.043 300.485 157.609 300.485 210.602C300.485 258.699 300.485 184.242 300.485 242.739L300.485 281.435L83.0002 366.565Z" fill="#E00000"/>
<path d="M476.001 413C476.001 354.502 453.088 298.401 412.302 257.037C371.516 215.673 316.198 192.435 258.517 192.435C258.517 250.478 258.517 204.043 258.517 257.037C258.517 305.134 258.517 230.676 258.517 289.174L258.517 327.87L476.001 413Z" fill="#FFC56E"/>
</g>
<defs>
<filter id="filter0_d_654_35" x="33" y="96" width="493.001" height="367" filterUnits="userSpaceOnUse" color-interpolation-filters="sRGB">
<feFlood flood-opacity="0" result="BackgroundImageFix"/>
<feColorMatrix in="SourceAlpha" type="matrix" values="0 0 0 0 0 0 0 0 0 0 0 0 0 0 0 0 0 0 127 0" result="hardAlpha"/>
<feOffset/>
<feGaussianBlur stdDeviation="25"/>
<feComposite in2="hardAlpha" operator="out"/>
<feColorMatrix type="matrix" values="0 0 0 0 0 0 0 0 0 0 0 0 0 0 0 0 0 0 0.5 0"/>
<feBlend mode="normal" in2="BackgroundImageFix" result="effect1_dropShadow_654_35"/>
<feBlend mode="normal" in="SourceGraphic" in2="effect1_dropShadow_654_35" result="shape"/>
</filter>
<linearGradient id="paint0_linear_654_35" x1="280" y1="-89.5" x2="280" y2="1015.5" gradientUnits="userSpaceOnUse">
<stop stop-color="#FFD7D7"/>
<stop offset="1" stop-color="#FFC56E"/>
</linearGradient>
</defs>
</svg>
