<svg width="80" height="54" viewBox="0 0 80 54" fill="none" xmlns="http://www.w3.org/2000/svg">
<path d="M-5.94575e-05 44.6089C-5.84355e-05 32.7779 4.64389 21.4314 12.9101 13.0656C21.1764 4.69981 32.3879 -4.64539e-05 44.0782 -4.63128e-05C44.0782 11.7391 44.0783 2.34779 44.0782 13.0656C44.0782 22.7931 44.0783 7.73425 44.0783 19.5653L44.0782 27.3914L-5.94575e-05 44.6089Z" fill="#E00000"/>
<path d="M79.6504 54.0005C79.6504 42.1695 75.0065 30.823 66.7403 22.4572C58.474 14.0914 47.2626 9.39156 35.5724 9.39156C35.5724 21.1307 35.5723 11.7394 35.5723 22.4572C35.5723 32.1848 35.5722 17.1259 35.5722 28.9569L35.5724 36.783L79.6504 54.0005Z" fill="#FFC56E"/>
</svg>
