<svg width="27" height="25" viewBox="0 0 27 25" fill="none" xmlns="http://www.w3.org/2000/svg">
<path d="M8.8125 11.7826C8.8125 12.1911 8.64788 12.5829 8.35485 12.8718C8.06183 13.1607 7.6644 13.323 7.25 13.323C6.8356 13.323 6.43817 13.1607 6.14515 12.8718C5.85212 12.5829 5.6875 12.1911 5.6875 11.7826C5.6875 11.374 5.85212 10.9822 6.14515 10.6934C6.43817 10.4045 6.8356 10.2422 7.25 10.2422C7.6644 10.2422 8.06183 10.4045 8.35485 10.6934C8.64788 10.9822 8.8125 11.374 8.8125 11.7826ZM15.0625 11.7826C15.0625 12.1911 14.8979 12.5829 14.6049 12.8718C14.3118 13.1607 13.9144 13.323 13.5 13.323C13.0856 13.323 12.6882 13.1607 12.3951 12.8718C12.1021 12.5829 11.9375 12.1911 11.9375 11.7826C11.9375 11.374 12.1021 10.9822 12.3951 10.6934C12.6882 10.4045 13.0856 10.2422 13.5 10.2422C13.9144 10.2422 14.3118 10.4045 14.6049 10.6934C14.8979 10.9822 15.0625 11.374 15.0625 11.7826ZM19.75 13.323C20.1644 13.323 20.5618 13.1607 20.8549 12.8718C21.1479 12.5829 21.3125 12.1911 21.3125 11.7826C21.3125 11.374 21.1479 10.9822 20.8549 10.6934C20.5618 10.4045 20.1644 10.2422 19.75 10.2422C19.3356 10.2422 18.9382 10.4045 18.6451 10.6934C18.3521 10.9822 18.1875 11.374 18.1875 11.7826C18.1875 12.1911 18.3521 12.5829 18.6451 12.8718C18.9382 13.1607 19.3356 13.323 19.75 13.323Z" fill="black"/>
<path d="M3.25937 22.4391L3.25469 22.4561C3.13792 22.787 3.01078 23.1142 2.87344 23.4373C2.75 23.7238 2.98906 24.0442 3.3 23.9949M3.25937 22.4391L3.49161 22.5216L3.73054 22.6065C3.73254 22.6008 3.73455 22.5952 3.73655 22.5895M3.25937 22.4391C3.66979 21.2837 3.9445 20.0857 4.07812 18.8685L3.25937 22.4391ZM3.73655 22.5895L3.73196 22.6061L3.72619 22.6225C3.62534 22.9083 3.51697 23.1914 3.4012 23.4716M3.73655 22.5895C4.15657 21.4029 4.43793 20.1728 4.57514 18.9231L4.60152 18.6828L4.42958 18.5129C2.59612 16.7009 1.5 14.3451 1.5 11.7827C1.5 6.17053 6.8011 1.5 13.5 1.5C20.1989 1.5 25.5 6.17053 25.5 11.7827C25.5 17.3949 20.1989 22.0655 13.5 22.0655L13.4989 22.0655C12.3042 22.0681 11.1144 21.9151 9.96038 21.6106L9.77826 21.5626L9.6097 21.6466C8.83723 22.0318 7.1331 22.755 4.3181 23.3055L4.31732 23.3057L4.28751 23.3116L4.3828 23.8024L4.28607 23.3118L4.28719 23.3116C3.99259 23.3688 3.69723 23.4222 3.4012 23.4716M3.73655 22.5895L4.41406 23.7962L4.38281 23.8024C4.02294 23.8723 3.66196 23.9365 3.3 23.9949M3.4012 23.4716C3.34091 23.4817 3.28059 23.4916 3.22025 23.5013L3.23471 23.5909L3.23508 23.5931L3.3 23.9949M3.4012 23.4716C3.37894 23.5255 3.3564 23.5793 3.33359 23.6329L3.33301 23.6343C3.3332 23.6338 3.33338 23.6334 3.33357 23.6329C3.34793 23.5971 3.33777 23.5604 3.32227 23.54C3.31411 23.5292 3.30122 23.5177 3.28216 23.5095C3.26134 23.5005 3.23913 23.4984 3.22171 23.5011L3.23603 23.5914L3.23639 23.5937L3.3 23.9949M13.5004 21.5251C19.9513 21.5249 24.9375 17.0398 24.9375 11.7827C24.9375 6.52555 19.9511 2.04039 13.5 2.04039C7.04892 2.04039 2.0625 6.52555 2.0625 11.7827C2.0625 14.1929 3.093 16.4149 4.83267 18.1364C4.94258 18.2452 5.02632 18.376 5.07842 18.5194C5.1303 18.6621 5.14967 18.8141 5.13533 18.9647C5.02848 19.9764 4.8266 20.9761 4.53227 21.9511L4.28367 22.7746L5.12228 22.5831C7.3393 22.0767 8.70971 21.4871 9.34992 21.1674L9.3501 21.1673C9.5845 21.0502 9.85522 21.0223 10.1098 21.0895L10.1099 21.0895C11.2158 21.3813 12.3558 21.5278 13.5004 21.5251ZM13.5004 21.5251C13.5007 21.5251 13.5009 21.5251 13.5012 21.5251L13.5 21.0251V21.5251C13.5001 21.5251 13.5003 21.5251 13.5004 21.5251Z" stroke="black"/>
<path d="M4.38281 23.8024L4.41406 23.7962C7.27344 23.2371 9.02031 22.4992 9.83281 22.0941C11.0288 22.4097 12.2619 22.5682 13.5 22.5655C20.4031 22.5655 26 17.7379 26 11.7827C26 5.82758 20.4031 1 13.5 1C6.59687 1 1 5.82758 1 11.7827C1 14.4938 2.16094 16.9738 4.07813 18.8685C3.9445 20.0857 3.66979 21.2837 3.25937 22.4391L3.25469 22.4561C3.13792 22.787 3.01078 23.1142 2.87344 23.4373C2.75 23.7238 2.98906 24.0442 3.3 23.9949C3.66196 23.9365 4.02294 23.8723 4.38281 23.8024ZM5.63281 19.0149C5.6547 18.7893 5.62586 18.5618 5.54835 18.3486C5.47083 18.1353 5.34656 17.9415 5.18437 17.781C3.52813 16.142 2.5625 14.044 2.5625 11.7827C2.5625 6.86581 7.25625 2.54039 13.5 2.54039C19.7438 2.54039 24.4375 6.86581 24.4375 11.7827C24.4375 16.6997 19.7438 21.0251 13.5 21.0251C12.3985 21.0277 11.3015 20.8868 10.2375 20.6061C9.86559 20.5078 9.46998 20.5484 9.12656 20.7201C8.52188 21.022 7.18906 21.5981 5.01094 22.0956C5.31454 21.0899 5.52273 20.0586 5.63281 19.0149Z" stroke="black" stroke-width="0.5"/>
</svg>
