<svg width="25" height="20" viewBox="0 0 25 20" fill="none" xmlns="http://www.w3.org/2000/svg">
<path d="M3.75 4.2793H21.25C22.0598 4.2793 22.828 4.5825 23.3876 5.10919C23.9457 5.63443 24.25 6.33674 24.25 7.05871V9.70803L16.3388 12.1911H8.66119L0.75 9.70803V7.05871C0.75 6.33674 1.05431 5.63443 1.61237 5.10919C2.17198 4.5825 2.94017 4.2793 3.75 4.2793Z" stroke="black" stroke-width="1.5"/>
<path d="M8.43132 12.5147L8.32166 12.4803L0.75 10.1038V16.4702C0.750869 17.192 1.05552 17.894 1.61347 18.4191C2.17288 18.9456 2.9405 19.2491 3.75 19.25C3.75023 19.25 3.75047 19.25 3.7507 19.25M8.43132 12.5147L3.75 20L3.7507 19.25M8.43132 12.5147H8.54625H16.4538H16.5687L16.6783 12.4803L24.25 10.1038L8.43132 12.5147ZM3.7507 19.25H21.2493M3.7507 19.25H21.2493M21.2493 19.25L21.25 19.25L21.2493 19.25ZM10 1.60294H9.25V2.35294V2.77941H8.25V2.35294C8.25 1.94299 8.42261 1.53992 8.74626 1.23531C9.07144 0.929254 9.52169 0.75 10 0.75H15C15.4783 0.75 15.9286 0.929254 16.2537 1.23531C16.5774 1.53992 16.75 1.94299 16.75 2.35294V2.77941H15.75V2.35294V1.60294H15H10Z" stroke="black" stroke-width="1.5"/>
</svg>
