<svg width="35" height="42" viewBox="0 0 35 42" fill="none" xmlns="http://www.w3.org/2000/svg">
<rect width="35" height="42" fill="#D9D9D9"/>
<path d="M30.8033 33.2182V34.4982H32.0833H33.3333C33.4772 34.4982 33.5845 34.5509 33.6476 34.6087C33.7087 34.6647 33.72 34.7136 33.72 34.7455V35.3745H23.3333H22.0533V36.6545C22.0533 38.7942 20.1194 40.72 17.5 40.72C14.8806 40.72 12.9467 38.7942 12.9467 36.6545V35.3745H11.6667H1.28V34.7455C1.28 34.7136 1.29129 34.6647 1.3524 34.6087C1.41552 34.5509 1.52282 34.4982 1.66667 34.4982H2.91667H4.19667V33.2182V16.9909C4.19667 10.9913 9.05677 5.88503 15.5829 5.03006L16.6967 4.88416V3.76091V1.90909C16.6967 1.66418 16.9484 1.28 17.5 1.28C18.0516 1.28 18.3033 1.66418 18.3033 1.90909V3.76091V4.88416L19.4171 5.03006C25.9432 5.88503 30.8033 10.9913 30.8033 16.9909V33.2182ZM15 35.3745H13.72V36.6545C13.72 38.7292 15.5204 40.2255 17.5 40.2255C19.4796 40.2255 21.28 38.7292 21.28 36.6545V35.3745H20H15Z" stroke="black" stroke-width="2.56"/>
</svg>
